<mxfile host="www.draw.io" modified="2019-12-17T11:29:07.844Z" agent="Mozilla/5.0 (Macintosh; Intel Mac OS X 10_14_2) AppleWebKit/537.36 (KHTML, like Gecko) Chrome/78.0.3904.108 Safari/537.36" etag="PSG6EFu53mDr_xUMDmIA" version="12.4.2" type="github" pages="1">
  <diagram id="DiPaaXrzhHXCtBBFaVaf" name="Page-1">
    <mxGraphModel dx="786" dy="514" grid="0" gridSize="10" guides="1" tooltips="1" connect="1" arrows="1" fold="1" page="1" pageScale="1" pageWidth="827" pageHeight="1169" math="0" shadow="0">
      <root>
        <mxCell id="0"/>
        <mxCell id="1" parent="0"/>
        <mxCell id="BxIZBatqYLK5uK5T5cRy-1" value="B" style="triangle;whiteSpace=wrap;html=1;" parent="1" vertex="1">
          <mxGeometry x="43" y="282" width="59" height="79" as="geometry"/>
        </mxCell>
        <mxCell id="BxIZBatqYLK5uK5T5cRy-3" value="" style="endArrow=none;html=1;entryX=0;entryY=0.5;entryDx=0;entryDy=0;exitX=1;exitY=0.5;exitDx=0;exitDy=0;" parent="1" source="BxIZBatqYLK5uK5T5cRy-1" edge="1">
          <mxGeometry width="50" height="50" relative="1" as="geometry">
            <mxPoint x="26" y="439.5" as="sourcePoint"/>
            <mxPoint x="128.99999999998454" y="321.5" as="targetPoint"/>
          </mxGeometry>
        </mxCell>
        <mxCell id="BxIZBatqYLK5uK5T5cRy-7" value="C" style="triangle;whiteSpace=wrap;html=1;direction=south;" parent="1" vertex="1">
          <mxGeometry x="180" y="139" width="80" height="60" as="geometry"/>
        </mxCell>
        <mxCell id="BxIZBatqYLK5uK5T5cRy-8" value="D" style="triangle;whiteSpace=wrap;html=1;direction=south;" parent="1" vertex="1">
          <mxGeometry x="301" y="139" width="80" height="60" as="geometry"/>
        </mxCell>
        <mxCell id="BxIZBatqYLK5uK5T5cRy-9" value="F" style="triangle;whiteSpace=wrap;html=1;direction=south;" parent="1" vertex="1">
          <mxGeometry x="467.5" y="139" width="80" height="60" as="geometry"/>
        </mxCell>
        <mxCell id="BxIZBatqYLK5uK5T5cRy-10" value="E" style="triangle;whiteSpace=wrap;html=1;direction=north;" parent="1" vertex="1">
          <mxGeometry x="467.5" y="444" width="80" height="60" as="geometry"/>
        </mxCell>
        <mxCell id="BxIZBatqYLK5uK5T5cRy-11" value="" style="ellipse;whiteSpace=wrap;html=1;aspect=fixed;" parent="1" vertex="1">
          <mxGeometry x="212" y="311" width="21" height="21" as="geometry"/>
        </mxCell>
        <mxCell id="BxIZBatqYLK5uK5T5cRy-13" value="" style="ellipse;whiteSpace=wrap;html=1;aspect=fixed;" parent="1" vertex="1">
          <mxGeometry x="497" y="311" width="21" height="21" as="geometry"/>
        </mxCell>
        <mxCell id="BxIZBatqYLK5uK5T5cRy-19" value="" style="endArrow=none;html=1;entryX=1;entryY=0.5;entryDx=0;entryDy=0;exitX=0.5;exitY=0;exitDx=0;exitDy=0;" parent="1" target="BxIZBatqYLK5uK5T5cRy-8" edge="1">
          <mxGeometry width="50" height="50" relative="1" as="geometry">
            <mxPoint x="341" y="236" as="sourcePoint"/>
            <mxPoint x="230" y="209" as="targetPoint"/>
          </mxGeometry>
        </mxCell>
        <mxCell id="BxIZBatqYLK5uK5T5cRy-32" value="" style="shape=process;whiteSpace=wrap;html=1;backgroundOutline=1;direction=south;size=0.20555555555555713;fillColor=#d5e8d4;strokeColor=#82b366;" parent="1" vertex="1">
          <mxGeometry x="332.5" y="227" width="17" height="40" as="geometry"/>
        </mxCell>
        <mxCell id="BxIZBatqYLK5uK5T5cRy-35" value="" style="shape=process;whiteSpace=wrap;html=1;backgroundOutline=1;direction=west;size=0.20555555555555713;fillColor=#d5e8d4;strokeColor=#82b366;" parent="1" vertex="1">
          <mxGeometry x="125" y="313" width="40" height="17" as="geometry"/>
        </mxCell>
        <mxCell id="BxIZBatqYLK5uK5T5cRy-39" value="" style="shape=process;whiteSpace=wrap;html=1;backgroundOutline=1;direction=west;size=0.20555555555555713;fillColor=#d5e8d4;strokeColor=#82b366;" parent="1" vertex="1">
          <mxGeometry x="233" y="313" width="40" height="17" as="geometry"/>
        </mxCell>
        <mxCell id="BxIZBatqYLK5uK5T5cRy-42" value="" style="ellipse;whiteSpace=wrap;html=1;aspect=fixed;" parent="1" vertex="1">
          <mxGeometry x="330.5" y="311" width="21" height="21" as="geometry"/>
        </mxCell>
        <mxCell id="BxIZBatqYLK5uK5T5cRy-43" value="" style="endArrow=none;html=1;entryX=1;entryY=0.5;entryDx=0;entryDy=0;exitX=1;exitY=0.5;exitDx=0;exitDy=0;" parent="1" source="BxIZBatqYLK5uK5T5cRy-10" target="BxIZBatqYLK5uK5T5cRy-47" edge="1">
          <mxGeometry width="50" height="50" relative="1" as="geometry">
            <mxPoint x="391" y="476" as="sourcePoint"/>
            <mxPoint x="441" y="426" as="targetPoint"/>
          </mxGeometry>
        </mxCell>
        <mxCell id="BxIZBatqYLK5uK5T5cRy-47" value="" style="shape=process;whiteSpace=wrap;html=1;backgroundOutline=1;direction=south;size=0.20555555555555713;fillColor=#d5e8d4;strokeColor=#82b366;" parent="1" vertex="1">
          <mxGeometry x="499" y="374" width="17" height="40" as="geometry"/>
        </mxCell>
        <mxCell id="BxIZBatqYLK5uK5T5cRy-51" value="" style="shape=process;whiteSpace=wrap;html=1;backgroundOutline=1;direction=west;size=0.20555555555555713;fillColor=#d5e8d4;strokeColor=#82b366;" parent="1" vertex="1">
          <mxGeometry x="518" y="313" width="40" height="17" as="geometry"/>
        </mxCell>
        <mxCell id="BxIZBatqYLK5uK5T5cRy-53" value="To Fehraltorf" style="text;html=1;strokeColor=none;fillColor=none;align=center;verticalAlign=middle;whiteSpace=wrap;rounded=0;" parent="1" vertex="1">
          <mxGeometry x="584" y="323" width="107" height="20" as="geometry"/>
        </mxCell>
        <mxCell id="BxIZBatqYLK5uK5T5cRy-55" value="" style="endArrow=classic;html=1;exitX=0;exitY=0.5;exitDx=0;exitDy=0;" parent="1" source="BxIZBatqYLK5uK5T5cRy-51" edge="1">
          <mxGeometry width="50" height="50" relative="1" as="geometry">
            <mxPoint x="43" y="575" as="sourcePoint"/>
            <mxPoint x="657" y="322" as="targetPoint"/>
          </mxGeometry>
        </mxCell>
        <mxCell id="BxIZBatqYLK5uK5T5cRy-57" value="" style="endArrow=classic;html=1;entryX=0;entryY=0.5;entryDx=0;entryDy=0;exitX=0;exitY=0.5;exitDx=0;exitDy=0;" parent="1" source="BxIZBatqYLK5uK5T5cRy-35" target="BxIZBatqYLK5uK5T5cRy-11" edge="1">
          <mxGeometry width="50" height="50" relative="1" as="geometry">
            <mxPoint x="43" y="575" as="sourcePoint"/>
            <mxPoint x="93" y="525" as="targetPoint"/>
          </mxGeometry>
        </mxCell>
        <mxCell id="BxIZBatqYLK5uK5T5cRy-58" value="" style="endArrow=classic;html=1;exitX=1;exitY=0.5;exitDx=0;exitDy=0;entryX=0.5;entryY=0;entryDx=0;entryDy=0;" parent="1" source="BxIZBatqYLK5uK5T5cRy-7" target="BxIZBatqYLK5uK5T5cRy-11" edge="1">
          <mxGeometry width="50" height="50" relative="1" as="geometry">
            <mxPoint x="176" y="361" as="sourcePoint"/>
            <mxPoint x="220" y="311" as="targetPoint"/>
          </mxGeometry>
        </mxCell>
        <mxCell id="BxIZBatqYLK5uK5T5cRy-60" value="" style="endArrow=classic;html=1;entryX=0;entryY=0.5;entryDx=0;entryDy=0;exitX=0;exitY=0.5;exitDx=0;exitDy=0;" parent="1" source="BxIZBatqYLK5uK5T5cRy-39" target="BxIZBatqYLK5uK5T5cRy-42" edge="1">
          <mxGeometry width="50" height="50" relative="1" as="geometry">
            <mxPoint x="43" y="575" as="sourcePoint"/>
            <mxPoint x="93" y="525" as="targetPoint"/>
          </mxGeometry>
        </mxCell>
        <mxCell id="BxIZBatqYLK5uK5T5cRy-61" value="" style="endArrow=classic;html=1;entryX=0.5;entryY=0;entryDx=0;entryDy=0;exitX=1;exitY=0.5;exitDx=0;exitDy=0;" parent="1" source="BxIZBatqYLK5uK5T5cRy-32" target="BxIZBatqYLK5uK5T5cRy-42" edge="1">
          <mxGeometry width="50" height="50" relative="1" as="geometry">
            <mxPoint x="43" y="575" as="sourcePoint"/>
            <mxPoint x="93" y="525" as="targetPoint"/>
          </mxGeometry>
        </mxCell>
        <mxCell id="BxIZBatqYLK5uK5T5cRy-62" value="" style="endArrow=classic;html=1;entryX=0;entryY=0.5;entryDx=0;entryDy=0;exitX=1;exitY=0.5;exitDx=0;exitDy=0;" parent="1" source="BxIZBatqYLK5uK5T5cRy-42" target="BxIZBatqYLK5uK5T5cRy-13" edge="1">
          <mxGeometry width="50" height="50" relative="1" as="geometry">
            <mxPoint x="43" y="575" as="sourcePoint"/>
            <mxPoint x="93" y="525" as="targetPoint"/>
          </mxGeometry>
        </mxCell>
        <mxCell id="BxIZBatqYLK5uK5T5cRy-63" value="" style="endArrow=classic;html=1;entryX=0.5;entryY=0;entryDx=0;entryDy=0;exitX=1;exitY=0.5;exitDx=0;exitDy=0;" parent="1" source="BxIZBatqYLK5uK5T5cRy-9" edge="1">
          <mxGeometry width="50" height="50" relative="1" as="geometry">
            <mxPoint x="527" y="215" as="sourcePoint"/>
            <mxPoint x="508.7499999999998" y="311" as="targetPoint"/>
          </mxGeometry>
        </mxCell>
        <mxCell id="BxIZBatqYLK5uK5T5cRy-64" value="" style="endArrow=classic;html=1;entryX=0.5;entryY=1;entryDx=0;entryDy=0;exitX=0;exitY=0.5;exitDx=0;exitDy=0;" parent="1" source="BxIZBatqYLK5uK5T5cRy-47" target="BxIZBatqYLK5uK5T5cRy-13" edge="1">
          <mxGeometry width="50" height="50" relative="1" as="geometry">
            <mxPoint x="43" y="575" as="sourcePoint"/>
            <mxPoint x="93" y="525" as="targetPoint"/>
          </mxGeometry>
        </mxCell>
        <mxCell id="BxIZBatqYLK5uK5T5cRy-65" value="Morgental &lt;br&gt;Qth = 75L/s" style="text;html=1;strokeColor=none;fillColor=none;align=center;verticalAlign=middle;whiteSpace=wrap;rounded=0;" parent="1" vertex="1">
          <mxGeometry x="494" y="286" width="107" height="20" as="geometry"/>
        </mxCell>
        <mxCell id="BxIZBatqYLK5uK5T5cRy-66" value="" style="shape=process;whiteSpace=wrap;html=1;backgroundOutline=1;direction=west;size=0.20555555555555713;fillColor=#d5e8d4;strokeColor=#82b366;" parent="1" vertex="1">
          <mxGeometry x="122.5" y="408" width="40" height="17" as="geometry"/>
        </mxCell>
        <mxCell id="BxIZBatqYLK5uK5T5cRy-67" value="overflow infrustracture" style="text;html=1;strokeColor=none;fillColor=none;align=center;verticalAlign=middle;whiteSpace=wrap;rounded=0;" parent="1" vertex="1">
          <mxGeometry x="163.5" y="408" width="137" height="20" as="geometry"/>
        </mxCell>
        <mxCell id="BxIZBatqYLK5uK5T5cRy-68" value="" style="ellipse;whiteSpace=wrap;html=1;aspect=fixed;" parent="1" vertex="1">
          <mxGeometry x="132" y="440" width="21" height="21" as="geometry"/>
        </mxCell>
        <mxCell id="BxIZBatqYLK5uK5T5cRy-69" value="manhole" style="text;html=1;strokeColor=none;fillColor=none;align=center;verticalAlign=middle;whiteSpace=wrap;rounded=0;" parent="1" vertex="1">
          <mxGeometry x="161.5" y="441" width="69" height="20" as="geometry"/>
        </mxCell>
        <mxCell id="BxIZBatqYLK5uK5T5cRy-70" value="" style="triangle;whiteSpace=wrap;html=1;" parent="1" vertex="1">
          <mxGeometry x="121" y="475" width="38" height="38" as="geometry"/>
        </mxCell>
        <mxCell id="BxIZBatqYLK5uK5T5cRy-71" value="catchment area" style="text;html=1;strokeColor=none;fillColor=none;align=center;verticalAlign=middle;whiteSpace=wrap;rounded=0;" parent="1" vertex="1">
          <mxGeometry x="151.5" y="484" width="120" height="20" as="geometry"/>
        </mxCell>
        <mxCell id="BxIZBatqYLK5uK5T5cRy-75" value="Wilhof&amp;nbsp;&lt;br&gt;Qth = 380L/s" style="text;html=1;strokeColor=none;fillColor=none;align=center;verticalAlign=middle;whiteSpace=wrap;rounded=0;" parent="1" vertex="1">
          <mxGeometry x="499" y="384" width="107" height="20" as="geometry"/>
        </mxCell>
        <mxCell id="BxIZBatqYLK5uK5T5cRy-80" value="Poststrasse&amp;nbsp;&lt;br&gt;Qth = 90L/s" style="text;html=1;strokeColor=none;fillColor=none;align=center;verticalAlign=middle;whiteSpace=wrap;rounded=0;" parent="1" vertex="1">
          <mxGeometry x="332.5" y="237" width="107" height="20" as="geometry"/>
        </mxCell>
        <mxCell id="BxIZBatqYLK5uK5T5cRy-83" value="Bergasse&amp;nbsp;&lt;br&gt;Qth = 250L/s" style="text;html=1;strokeColor=none;fillColor=none;align=center;verticalAlign=middle;whiteSpace=wrap;rounded=0;" parent="1" vertex="1">
          <mxGeometry x="210" y="334" width="107" height="20" as="geometry"/>
        </mxCell>
        <mxCell id="BxIZBatqYLK5uK5T5cRy-84" value="Kronentobel&amp;nbsp;&lt;br&gt;Qth = 200L/s" style="text;html=1;strokeColor=none;fillColor=none;align=center;verticalAlign=middle;whiteSpace=wrap;rounded=0;" parent="1" vertex="1">
          <mxGeometry x="97" y="334" width="107" height="20" as="geometry"/>
        </mxCell>
        <mxCell id="q7jfVZqJm8bnaxbbPvyo-1" value="Q_B" style="text;html=1;" vertex="1" parent="1">
          <mxGeometry x="97" y="295" width="24" height="16" as="geometry"/>
        </mxCell>
        <mxCell id="q7jfVZqJm8bnaxbbPvyo-2" value="Q_B&#39;" style="text;html=1;" vertex="1" parent="1">
          <mxGeometry x="175" y="295" width="24" height="16" as="geometry"/>
        </mxCell>
        <mxCell id="q7jfVZqJm8bnaxbbPvyo-3" value="Q_C" style="text;html=1;" vertex="1" parent="1">
          <mxGeometry x="225" y="239" width="24" height="16" as="geometry"/>
        </mxCell>
        <mxCell id="q7jfVZqJm8bnaxbbPvyo-4" value="Q_BC" style="text;html=1;" vertex="1" parent="1">
          <mxGeometry x="287" y="295" width="24" height="16" as="geometry"/>
        </mxCell>
        <mxCell id="q7jfVZqJm8bnaxbbPvyo-7" value="Q_D" style="text;html=1;" vertex="1" parent="1">
          <mxGeometry x="342" y="203" width="24" height="16" as="geometry"/>
        </mxCell>
        <mxCell id="q7jfVZqJm8bnaxbbPvyo-8" value="Q_D&#39;" style="text;html=1;" vertex="1" parent="1">
          <mxGeometry x="342" y="276" width="24" height="16" as="geometry"/>
        </mxCell>
        <mxCell id="q7jfVZqJm8bnaxbbPvyo-9" value="Q_BCD" style="text;html=1;" vertex="1" parent="1">
          <mxGeometry x="408" y="297" width="24" height="16" as="geometry"/>
        </mxCell>
        <mxCell id="q7jfVZqJm8bnaxbbPvyo-10" value="Q_total" style="text;html=1;" vertex="1" parent="1">
          <mxGeometry x="606" y="295" width="24" height="16" as="geometry"/>
        </mxCell>
        <mxCell id="q7jfVZqJm8bnaxbbPvyo-11" value="Q_E" style="text;html=1;" vertex="1" parent="1">
          <mxGeometry x="508" y="417" width="24" height="16" as="geometry"/>
        </mxCell>
        <mxCell id="q7jfVZqJm8bnaxbbPvyo-13" value="Q_E&#39;" style="text;html=1;" vertex="1" parent="1">
          <mxGeometry x="508" y="343" width="24" height="16" as="geometry"/>
        </mxCell>
        <mxCell id="q7jfVZqJm8bnaxbbPvyo-14" value="Q_F" style="text;html=1;" vertex="1" parent="1">
          <mxGeometry x="508" y="211" width="24" height="16" as="geometry"/>
        </mxCell>
        <mxCell id="q7jfVZqJm8bnaxbbPvyo-15" value="r03" style="ellipse;whiteSpace=wrap;html=1;aspect=fixed;fillColor=#f8cecc;strokeColor=#b85450;" vertex="1" parent="1">
          <mxGeometry x="474" y="332" width="20" height="20" as="geometry"/>
        </mxCell>
        <mxCell id="q7jfVZqJm8bnaxbbPvyo-16" value="f03" style="ellipse;whiteSpace=wrap;html=1;aspect=fixed;fillColor=#f8cecc;strokeColor=#b85450;" vertex="1" parent="1">
          <mxGeometry x="578" y="334" width="20" height="20" as="geometry"/>
        </mxCell>
        <mxCell id="q7jfVZqJm8bnaxbbPvyo-21" value="" style="endArrow=none;dashed=1;html=1;exitX=0.5;exitY=0;exitDx=0;exitDy=0;" edge="1" parent="1" source="q7jfVZqJm8bnaxbbPvyo-16">
          <mxGeometry width="50" height="50" relative="1" as="geometry">
            <mxPoint x="43" y="575" as="sourcePoint"/>
            <mxPoint x="589" y="322" as="targetPoint"/>
          </mxGeometry>
        </mxCell>
        <mxCell id="q7jfVZqJm8bnaxbbPvyo-24" value="" style="ellipse;whiteSpace=wrap;html=1;aspect=fixed;fillColor=#f8cecc;strokeColor=#b85450;" vertex="1" parent="1">
          <mxGeometry x="131.5" y="374" width="20" height="20" as="geometry"/>
        </mxCell>
        <mxCell id="q7jfVZqJm8bnaxbbPvyo-26" value="data collction point" style="text;html=1;strokeColor=none;fillColor=none;align=center;verticalAlign=middle;whiteSpace=wrap;rounded=0;" vertex="1" parent="1">
          <mxGeometry x="153" y="371" width="137" height="20" as="geometry"/>
        </mxCell>
      </root>
    </mxGraphModel>
  </diagram>
</mxfile>
